<svg width="474" height="50" viewBox="0 0 474 50" fill="none" xmlns="http://www.w3.org/2000/svg">
<g clip-path="url(#clip0_132_20)">
<path d="M276.6 3.63833C273.217 1.69308 269.3 0.720459 264.867 0.720459H249.767V46.1095L257.417 38.5447V8.55547H264.4C267.25 8.55547 269.817 9.16787 272.083 10.4107C274.35 11.6535 276.133 13.4906 277.45 15.9222C278.767 18.3718 279.433 21.4157 279.433 25.072C279.433 28.7284 278.767 31.8984 277.417 34.2939C276.083 36.6895 274.267 38.4726 272.017 39.6434C269.75 40.8141 267.2 41.3905 264.333 41.3905H260.017L252.35 49.2255H264.8C269.233 49.2255 273.15 48.2889 276.533 46.4157C279.917 44.5425 282.567 41.8048 284.467 38.1844C286.383 34.5821 287.333 30.2053 287.333 25.072C287.333 19.9388 286.383 15.634 284.5 11.9957C282.617 8.35735 279.967 5.56556 276.583 3.62031L276.6 3.63833Z" fill="#A8A8A8"/>
<path d="M26.8167 3.63833C23.4333 1.69308 19.5333 0.720459 15.1 0.720459H0V46.866L7.65 39.067V8.55547H14.6333C17.4833 8.55547 20.05 9.16787 22.3167 10.4107C24.5833 11.6535 26.3667 13.4906 27.6833 15.9222C29 18.3718 29.6667 21.4157 29.6667 25.072C29.6667 28.7284 29 31.8984 27.65 34.2939C26.3167 36.6895 24.5 38.4726 22.25 39.6434C19.9833 40.8141 17.4333 41.3905 14.5667 41.3905H10.3833L2.71667 49.2255H15.05C19.4833 49.2255 23.4 48.2889 26.7833 46.4157C30.1667 44.5425 32.8167 41.8048 34.7167 38.1844C36.6333 34.5821 37.5833 30.2053 37.5833 25.072C37.5833 19.9388 36.6333 15.634 34.75 11.9957C32.8667 8.35735 30.2167 5.56556 26.85 3.62031L26.8167 3.63833Z" fill="#A8A8A8"/>
<path d="M73.2833 49.2075H80.9167V29.1246H96.8V21.2896H80.9167V8.55547H100.5V0.720459H73.2833V49.2075Z" fill="#A8A8A8"/>
<path d="M143.9 7.04251C141.817 4.80908 139.367 3.07998 136.55 1.83718C133.733 0.594387 130.683 -0.0180054 127.383 -0.0180054C124.083 -0.0180054 120.883 0.594387 118.05 1.83718C115.217 3.07998 112.75 4.80908 110.667 7.04251C108.583 9.27594 106.967 11.9236 105.817 14.9856C104.667 18.0476 104.1 21.3797 104.1 25C104.1 28.6203 104.667 31.9344 105.817 34.9784C106.967 38.0223 108.567 40.67 110.667 42.9215C112.75 45.1729 115.217 46.92 118.05 48.1628C120.883 49.4056 124 50.018 127.383 50.018C130.767 50.018 133.733 49.4056 136.55 48.1628C139.367 46.92 141.817 45.1909 143.9 42.9215C145.983 40.67 147.6 38.0223 148.75 34.9784C149.9 31.9344 150.467 28.6203 150.467 25C150.467 21.3797 149.9 18.0476 148.75 14.9856C147.6 11.9236 145.983 9.27594 143.9 7.04251ZM140.7 33.7536C139.383 36.3112 137.567 38.3285 135.267 39.7695C132.967 41.2104 130.333 41.9489 127.383 41.9489C124.433 41.9489 121.733 41.2284 119.4 39.7695C117.067 38.3285 115.233 36.3293 113.9 33.7896C112.567 31.25 111.883 28.3141 111.883 25C111.883 21.6859 112.55 18.75 113.9 16.2104C115.233 13.6708 117.067 11.6715 119.4 10.2306C121.733 8.78963 124.383 8.05116 127.383 8.05116C130.383 8.05116 132.95 8.77162 135.267 10.1945C137.567 11.6174 139.383 13.5987 140.7 16.1383C142.017 18.678 142.683 21.6319 142.683 25C142.683 28.3682 142.033 31.196 140.7 33.7536Z" fill="#A8A8A8"/>
<path d="M184.4 29.701C184.4 33.5915 183.55 36.6174 181.833 38.7788C180.117 40.9402 177.617 42.0209 174.317 42.0209C171.017 42.0209 168.633 40.9402 166.9 38.7788C165.167 36.6174 164.3 33.5915 164.3 29.701V0.720459H156.65V30.3494C156.65 34.6182 157.383 38.2385 158.867 41.1744C160.333 44.1102 162.4 46.3256 165.033 47.8026C167.667 49.2795 170.767 50.018 174.317 50.018C177.867 50.018 181.033 49.2795 183.683 47.8026C186.317 46.3256 188.367 44.1282 189.85 41.1744C191.317 38.2385 192.05 34.6182 192.05 30.3494V0.720459H184.4V29.701Z" fill="#A8A8A8"/>
<path d="M232.117 34.2939L208.517 0.720459H201.8V49.2075H209.433V15.634L233.033 49.2075H239.75V0.720459H232.117V34.2939Z" fill="#A8A8A8"/>
<path d="M303.75 0.720459L287.8 49.2255H295.517L298.95 38.6888H317.917L321.283 49.2255H329.067L313.317 0.720459H303.767H303.75ZM301.467 30.9798L308.55 9.27593L315.467 30.9798H301.467Z" fill="#A8A8A8"/>
<path d="M326.367 8.55547H340.133V49.2075H347.783V8.55547H362.083V0.720459H326.367V8.55547Z" fill="#A8A8A8"/>
<path d="M375.4 0.720459H367.75V49.2255H375.4V0.720459Z" fill="#A8A8A8"/>
<path d="M422.017 7.04251C419.933 4.80908 417.483 3.07998 414.667 1.83718C411.85 0.594387 408.8 -0.0180054 405.5 -0.0180054C402.2 -0.0180054 399 0.594387 396.183 1.83718C393.35 3.07998 390.883 4.80908 388.8 7.04251C386.717 9.27594 385.1 11.9236 383.95 14.9856C382.8 18.0476 382.233 21.3797 382.233 25C382.233 28.6203 382.8 31.9344 383.95 34.9784C385.1 38.0223 386.7 40.67 388.8 42.9215C390.883 45.1729 393.35 46.92 396.183 48.1628C399.017 49.4056 402.117 50.018 405.5 50.018C408.883 50.018 411.85 49.4056 414.667 48.1628C417.483 46.92 419.933 45.1909 422.017 42.9215C424.1 40.67 425.717 38.0223 426.867 34.9784C428.017 31.9344 428.583 28.6203 428.583 25C428.583 21.3797 428.017 18.0476 426.867 14.9856C425.717 11.9236 424.1 9.27594 422.017 7.04251ZM418.833 33.7536C417.517 36.3112 415.7 38.3285 413.4 39.7695C411.1 41.2104 408.467 41.9489 405.517 41.9489C402.567 41.9489 399.867 41.2284 397.533 39.7695C395.2 38.3285 393.367 36.3293 392.033 33.7896C390.7 31.25 390.017 28.3141 390.017 25C390.017 21.6859 390.683 18.75 392.033 16.2104C393.367 13.6708 395.2 11.6715 397.533 10.2306C399.867 8.78963 402.517 8.05116 405.517 8.05116C408.517 8.05116 411.083 8.77162 413.4 10.1945C415.7 11.6174 417.517 13.5987 418.833 16.1383C420.15 18.678 420.817 21.6319 420.817 25C420.817 28.3682 420.167 31.196 418.833 33.7536Z" fill="#A8A8A8"/>
<path d="M465.683 0.720459V34.2939L442.1 0.720459H435.367V49.2075H443.017V15.634L466.617 49.2075H473.333V0.720459H465.683Z" fill="#A8A8A8"/>
<path d="M65.4667 20.9834H45.3667V28.6023H65.4667V20.9834Z" fill="#A8A8A8"/>
<path d="M0 0.702454L7.65 8.53747L7.66667 39.031L0 46.866V0.702454Z" fill="white"/>
<path d="M249.783 0.702454L257.417 8.53747L257.45 39.031L249.783 46.866V0.702454Z" fill="white"/>
</g>
<defs>
<clipPath id="clip0_132_20">
<rect width="473.333" height="50" fill="white"/>
</clipPath>
</defs>
</svg>
