<svg width="512" height="50" viewBox="0 0 512 50" fill="none" xmlns="http://www.w3.org/2000/svg">
<g clip-path="url(#clip0_132_5)">
<path d="M298.919 3.63833C295.263 1.69308 291.03 0.720459 286.239 0.720459H269.921V46.1095L278.188 38.5447V8.55547H285.735C288.815 8.55547 291.589 9.16787 294.038 10.4107C296.488 11.6535 298.415 13.4906 299.838 15.9222C301.261 18.3718 301.981 21.4157 301.981 25.072C301.981 28.7284 301.261 31.8984 299.802 34.2939C298.361 36.6895 296.398 38.4726 293.966 39.6434C291.517 40.8141 288.761 41.3905 285.663 41.3905H280.998L272.713 49.2255H286.167C290.958 49.2255 295.191 48.2889 298.847 46.4157C302.504 44.5425 305.367 41.8048 307.421 38.1844C309.492 34.5821 310.519 30.2053 310.519 25.072C310.519 19.9388 309.492 15.634 307.457 11.9957C305.421 8.35735 302.558 5.56556 298.901 3.62031L298.919 3.63833Z" fill="black"/>
<path d="M28.9805 3.63833C25.3242 1.69308 21.1095 0.720459 16.3184 0.720459H0V46.866L8.26729 39.067V8.55547H15.8141C18.8941 8.55547 21.6679 9.16787 24.1174 10.4107C26.567 11.6535 28.4942 13.4906 29.9171 15.9222C31.3401 18.3718 32.0605 21.4157 32.0605 25.072C32.0605 28.7284 31.3401 31.8984 29.8811 34.2939C28.4402 36.6895 26.4769 38.4726 24.0454 39.6434C21.5958 40.8141 18.8401 41.3905 15.7421 41.3905H11.2212L2.93588 49.2255H16.2644C21.0555 49.2255 25.2882 48.2889 28.9445 46.4157C32.6009 44.5425 35.4647 41.8048 37.518 38.1844C39.5893 34.5821 40.616 30.2053 40.616 25.072C40.616 19.9388 39.5893 15.634 37.554 11.9957C35.5187 8.35735 32.6549 5.56556 29.0166 3.62031L28.9805 3.63833Z" fill="black"/>
<path d="M79.1967 49.2075H87.4459V29.1246H104.611V21.2896H87.4459V8.55547H108.609V0.720459H79.1967V49.2075Z" fill="black"/>
<path d="M155.512 7.04251C153.26 4.80908 150.612 3.07998 147.568 1.83718C144.524 0.594387 141.228 -0.0180054 137.662 -0.0180054C134.096 -0.0180054 130.638 0.594387 127.576 1.83718C124.514 3.07998 121.848 4.80908 119.597 7.04251C117.345 9.27594 115.598 11.9236 114.355 14.9856C113.112 18.0476 112.5 21.3797 112.5 25C112.5 28.6203 113.112 31.9344 114.355 34.9784C115.598 38.0223 117.327 40.67 119.597 42.9215C121.848 45.1729 124.514 46.92 127.576 48.1628C130.638 49.4056 134.006 50.018 137.662 50.018C141.318 50.018 144.524 49.4056 147.568 48.1628C150.612 46.92 153.26 45.1909 155.512 42.9215C157.763 40.67 159.51 38.0223 160.753 34.9784C161.996 31.9344 162.608 28.6203 162.608 25C162.608 21.3797 161.996 18.0476 160.753 14.9856C159.51 11.9236 157.763 9.27594 155.512 7.04251ZM152.053 33.7536C150.63 36.3112 148.667 38.3285 146.182 39.7695C143.696 41.2104 140.85 41.9489 137.662 41.9489C134.474 41.9489 131.556 41.2284 129.035 39.7695C126.513 38.3285 124.532 36.3293 123.091 33.7896C121.65 31.25 120.911 28.3141 120.911 25C120.911 21.6859 121.632 18.75 123.091 16.2104C124.532 13.6708 126.513 11.6715 129.035 10.2306C131.556 8.78963 134.42 8.05116 137.662 8.05116C140.904 8.05116 143.678 8.77162 146.182 10.1945C148.667 11.6174 150.63 13.5987 152.053 16.1383C153.476 18.678 154.197 21.6319 154.197 25C154.197 28.3682 153.494 31.196 152.053 33.7536Z" fill="black"/>
<path d="M199.28 29.701C199.28 33.5915 198.361 36.6174 196.506 38.7788C194.651 40.9402 191.949 42.0209 188.383 42.0209C184.816 42.0209 182.241 40.9402 180.367 38.7788C178.494 36.6174 177.558 33.5915 177.558 29.701V0.720459H169.29V30.3494C169.29 34.6182 170.083 38.2385 171.686 41.1744C173.271 44.1102 175.504 46.3256 178.35 47.8026C181.196 49.2795 184.546 50.018 188.383 50.018C192.219 50.018 195.641 49.2795 198.505 47.8026C201.351 46.3256 203.566 44.1282 205.169 41.1744C206.754 38.2385 207.547 34.6182 207.547 30.3494V0.720459H199.28V29.701Z" fill="black"/>
<path d="M250.847 34.2939L225.342 0.720459H218.084V49.2075H226.333V15.634L251.837 49.2075H259.096V0.720459H250.847V34.2939Z" fill="black"/>
<path d="M328.26 0.720459L311.023 49.2255H319.362L323.073 38.6888H343.57L347.208 49.2255H355.62L338.599 0.720459H328.278H328.26ZM325.792 30.9798L333.447 9.27593L340.922 30.9798H325.792Z" fill="black"/>
<path d="M352.702 8.55547H367.579V49.2075H375.847V8.55547H391.3V0.720459H352.702V8.55547Z" fill="black"/>
<path d="M405.692 0.720459H397.424V49.2255H405.692V0.720459Z" fill="black"/>
<path d="M456.07 7.04251C453.818 4.80908 451.171 3.07998 448.127 1.83718C445.083 0.594387 441.787 -0.0180054 438.22 -0.0180054C434.654 -0.0180054 431.196 0.594387 428.152 1.83718C425.09 3.07998 422.424 4.80908 420.173 7.04251C417.921 9.27594 416.174 11.9236 414.932 14.9856C413.689 18.0476 413.076 21.3797 413.076 25C413.076 28.6203 413.689 31.9344 414.932 34.9784C416.174 38.0223 417.903 40.67 420.173 42.9215C422.424 45.1729 425.09 46.92 428.152 48.1628C431.214 49.4056 434.564 50.018 438.22 50.018C441.877 50.018 445.083 49.4056 448.127 48.1628C451.171 46.92 453.818 45.1909 456.07 42.9215C458.321 40.67 460.068 38.0223 461.311 34.9784C462.554 31.9344 463.166 28.6203 463.166 25C463.166 21.3797 462.554 18.0476 461.311 14.9856C460.068 11.9236 458.321 9.27594 456.07 7.04251ZM452.63 33.7536C451.207 36.3112 449.243 38.3285 446.758 39.7695C444.272 41.2104 441.426 41.9489 438.238 41.9489C435.05 41.9489 432.133 41.2284 429.611 39.7695C427.089 38.3285 425.108 36.3293 423.667 33.7896C422.226 31.25 421.488 28.3141 421.488 25C421.488 21.6859 422.208 18.75 423.667 16.2104C425.108 13.6708 427.089 11.6715 429.611 10.2306C432.133 8.78963 434.996 8.05116 438.238 8.05116C441.481 8.05116 444.254 8.77162 446.758 10.1945C449.243 11.6174 451.207 13.5987 452.63 16.1383C454.053 18.678 454.773 21.6319 454.773 25C454.773 28.3682 454.071 31.196 452.63 33.7536Z" fill="black"/>
<path d="M503.26 0.720459V34.2939L477.774 0.720459H470.497V49.2075H478.764V15.634L504.269 49.2075H511.527V0.720459H503.26Z" fill="black"/>
<path d="M70.7492 20.9834H49.0273V28.6023H70.7492V20.9834Z" fill="black"/>
<path d="M0 0.702454L8.26729 8.53747L8.2853 39.031L0 46.866V0.702454Z" fill="#999999"/>
<path d="M269.939 0.702454L278.188 8.53747L278.224 39.031L269.939 46.866V0.702454Z" fill="#939393"/>
</g>
<defs>
<clipPath id="clip0_132_5">
<rect width="511.527" height="50" fill="white"/>
</clipPath>
</defs>
</svg>
